<?xml version="1.0" encoding="utf-8"?>
<!-- Generator: Adobe Illustrator 22.0.0, SVG Export Plug-In . SVG Version: 6.00 Build 0)  -->
<svg version="1.1" id="Layer_1" xmlns="http://www.w3.org/2000/svg" xmlns:xlink="http://www.w3.org/1999/xlink" x="0px" y="0px"
	 viewBox="0 0 1024 1024" style="enable-background:new 0 0 1024 1024;" xml:space="preserve">
<style type="text/css">
	.st0{clip-path:url(#SVGID_2_);fill:#FFFFFF;}
</style>
<g>
	<defs>
		<rect id="SVGID_1_" width="1024" height="1024"/>
	</defs>
	<clipPath id="SVGID_2_">
		<use xlink:href="#SVGID_1_"  style="overflow:visible;"/>
	</clipPath>
	<path class="st0" d="M874.2,149.8c-199.7-199.7-524.7-199.7-724.4,0c-199.7,199.7-199.7,524.7,0,724.4
		c199.7,199.7,524.7,199.7,724.4,0C1073.9,674.5,1073.9,349.5,874.2,149.8 M263.9,292.8l5.3,0c67.9,0,131.6,39.9,174.9,110.6
		l20.3,32.9c4.9,7.7,2.8,18.9-5.6,23.8v0c-8.4,5.6-19.6,2.8-25.2-5.6l-20.3-32.9c-36.4-59.5-89.6-93.8-144.8-93.8h-4.6
		c-9.8,0-17.5-7.7-17.5-17.5C246.4,300.5,254.1,292.8,263.9,292.8 M772.7,725.9L772.7,725.9l-81.9,81.9c-7,7-18.2,7-24.5,0
		c-7-7-7-18.2,0-24.5l51.8-51.8l-6,0c-67.9,0-131.6-40.6-174.9-110.6l-12.6-20.3c-4.9-8.4-2.8-18.9,5.6-23.8
		c2.8-2.1,6.3-2.8,9.1-2.8c5.6,0,11.9,2.8,14.7,8.4l12.6,20.3c37.1,59.5,90.2,93.7,144.8,93.7h6l-51.1-51.8c-7-7-7-18.2,0-24.5
		c3.5-3.5,7.7-4.9,12.6-4.9c4.9,0,9.1,1.4,12.6,4.9l81.2,81.2c3.5,3.5,4.9,7.7,4.9,12.6C777.6,718.9,775.5,723.1,772.7,725.9
		 M772.8,322.2l-81.9,81.2c-7,7-18.2,7-24.5,0c-7-7-7-18.2,0-24.5l51.8-51.8h-3.2c-55.3,0-108.5,34.3-144.8,93.8L446.2,621
		c-43.4,70.7-107.1,110.6-174.9,110.6l-7.4,0c-9.8,0-17.5-7.7-17.5-17.5c0-9.8,7.7-17.5,17.5-17.5h7.4c55.3,0,108.5-34.3,144.8-93.7
		L540,402.7c43.4-70.7,107.1-110.6,174.9-110.6h3.2l-51.8-51.8c-7-6.3-7-17.5,0-24.5l0,0c3.5-3.5,7.7-4.9,12.6-4.9
		c4.9,0,9.1,1.4,12.6,4.9l81.2,81.2c3.5,3.5,4.9,7.7,4.9,12.6C777.6,314.5,775.5,318.7,772.8,322.2"/>
</g>
</svg>
