<?xml version="1.0" encoding="utf-8"?>
<!-- Generator: Adobe Illustrator 22.0.0, SVG Export Plug-In . SVG Version: 6.00 Build 0)  -->
<svg version="1.1" id="Layer_1" xmlns="http://www.w3.org/2000/svg" xmlns:xlink="http://www.w3.org/1999/xlink" x="0px" y="0px"
	 viewBox="0 0 1200 371.8" style="enable-background:new 0 0 1200 371.8;" xml:space="preserve">
<style type="text/css">
	.st0{display:none;fill:url(#SVGID_1_);}
	.st1{fill:#FFFFFF;}
</style>
<linearGradient id="SVGID_1_" gradientUnits="userSpaceOnUse" x1="1301.781" y1="481.436" x2="-146.8827" y2="-125.4368" gradientTransform="matrix(1 0 0 -1 0 373.2756)">
	<stop  offset="0" style="stop-color:#0DDAEC"/>
	<stop  offset="1" style="stop-color:#A460FA"/>
</linearGradient>
<rect x="-148.1" y="-115.7" class="st0" width="1496.1" height="603.1"/>
<g>
	<path class="st1" d="M502.4,244.9l3.1-5.5c1.4-2.4,4.5-2.8,7.2-0.7c4.1,3.4,21,15.5,43.4,15.5c24.1,0,39.6-11.7,39.6-28.6
		c0-18.3-19.3-26.9-46.2-36.9c-27.9-10-47.5-21-47.5-46.2c0-17.2,14.5-40.7,51-40.7c21,0,36.9,7.2,44.8,12.1
		c2.4,1.7,3.4,4.5,2.1,7.2l-2.1,3.8c-1.4,2.8-4.1,2.8-6.9,1.4c-3.8-2.1-21-10.3-37.9-10.3c-25.1,0-35.8,14.1-35.8,26.2
		c0,15.8,15.8,24.5,39.3,33.1c29.6,11,54.4,20,54.4,50.3c0,24.1-22.7,42.7-54.8,42.7c-26.9,0-43.4-11-52-17.6
		C502.4,249.4,501,247.3,502.4,244.9z"/>
	<path class="st1" d="M644.7,112c-1-3.8-1-6.5,2.4-6.5h7.6c2.4,0,4.5,0.7,5.2,3.8l37.5,128.1h0.7l48.2-131.9c1-2.8,2.1-3.4,4.8-3.4
		h1.4c2.1,0,3.8,1,4.8,3.4l47.5,131.9h0.7l37.9-128.1c0.7-3.1,3.4-3.8,5.2-3.8h7.9c3.4,0,3.4,2.8,2.1,6.5l-47.5,152.6
		c-0.7,2.8-2.1,3.8-4.8,3.8h-1.4c-2.1,0-4.1-1.4-5.2-3.8l-47.5-135.7h-0.7l-47.9,135.7c-0.7,2.4-2.4,3.8-4.8,3.8h-1.4
		c-2.4,0-4.1-0.7-5.2-3.8L644.7,112z"/>
	<path class="st1" d="M951.6,161.9c18.3,0,36.9,5.9,41,7.2c0-35.1-4.5-53.1-35.8-53.1c-26.2,0-44.4,9.6-47.5,10.7
		c-3.4,1.4-5.5,0-6.2-2.4l-1.7-4.8c-1.7-3.1,0.3-4.8,2.1-5.9c1-0.7,21.4-11.7,54.8-11.7c48.2,0,49.6,28.2,49.6,69.2v88.2
		c0,2.8-2.8,5.2-5.5,5.2h-2.8c-2.8,0-4.5-1.4-4.8-4.5l-1.7-14.5c-10,10-30.7,22.7-55.8,22.7c-29.6,0-51.7-20-51.7-52.7
		C885.5,185,909.9,161.9,951.6,161.9z M938.9,253.5c24.1,0,46.2-14.5,53.7-24.1v-45.8c-5.2-2.4-22-8.3-41-8.3
		c-30.3,0-51.3,16.5-51.3,40C900.3,238,916.8,253.5,938.9,253.5z"/>
	<path class="st1" d="M1072.5,341.4c0,2.8-3.1,5.2-5.5,5.2h-4.5c-3.1,0-5.2-2.4-5.2-5.2V110.6c0-3.4,2.8-5.2,5.5-5.2h2.1
		c2.8,0,4.1,1,4.5,4.1l1.4,11c4.8-3.8,24.5-18.6,53.7-18.6c44.1,0,75.4,36.2,75.4,82.7c0,46.9-33.1,83.7-79.2,83.7
		c-26.5,0-43.8-12.7-48.2-16.5L1072.5,341.4L1072.5,341.4z M1120.4,253.5c38.6,0,64.4-30.3,64.4-69.2c0-36.9-24.5-67.5-61-67.5
		c-30.7,0-49.3,18.3-51.3,21v96.5C1074.6,236.3,1093.6,253.5,1120.4,253.5z"/>
</g>
<path class="st1" d="M185.9,0C83.4,0,0,83.4,0,185.9s83.4,185.9,185.9,185.9s185.9-83.4,185.9-185.9S288.4,0,185.9,0z M95.8,106.3
	h1.9c24.6,0,47.7,14.5,63.5,40.1l7.4,11.9c1.8,2.8,1,6.9-2,8.6l0,0c-3,2-7.1,1-9.1-2l-7.4-11.9c-13.2-21.6-32.5-34-52.6-34h-1.7
	c-3.6,0-6.3-2.8-6.3-6.3C89.5,109.1,92.3,106.3,95.8,106.3z M280.5,263.5L280.5,263.5l-29.7,29.7c-2.5,2.5-6.6,2.5-8.9,0
	c-2.5-2.5-2.5-6.6,0-8.9l18.8-18.8h-2.2c-24.6,0-47.7-14.7-63.5-40.1l-4.6-7.4c-1.8-3-1-6.9,2-8.6c1-0.8,2.3-1,3.3-1
	c2,0,4.3,1,5.3,3l4.6,7.4c13.5,21.6,32.8,34,52.6,34h2.2L241.9,234c-2.5-2.5-2.5-6.6,0-8.9c1.3-1.3,2.8-1.8,4.6-1.8s3.3,0.5,4.6,1.8
	l29.5,29.5c1.3,1.3,1.8,2.8,1.8,4.6C282.3,261,281.5,262.5,280.5,263.5z M280.5,117l-29.7,29.5c-2.5,2.5-6.6,2.5-8.9,0
	c-2.5-2.5-2.5-6.6,0-8.9l18.8-18.8h-1.2c-20.1,0-39.4,12.4-52.6,34L162,225.4c-15.7,25.7-38.9,40.1-63.5,40.1h-2.7
	c-3.6,0-6.3-2.8-6.3-6.3c0-3.6,2.8-6.3,6.3-6.3h2.7c20.1,0,39.4-12.4,52.6-34l44.9-72.6c15.7-25.7,38.9-40.1,63.5-40.1h1.2
	l-18.8-18.8c-2.5-2.3-2.5-6.3,0-8.9l0,0c1.3-1.3,2.8-1.8,4.6-1.8s3.3,0.5,4.6,1.8l29.5,29.5c1.3,1.3,1.8,2.8,1.8,4.6
	C282.3,114.2,281.5,115.7,280.5,117z"/>
</svg>
