<?xml version="1.0" encoding="utf-8"?>
<!-- Generator: Adobe Illustrator 22.0.0, SVG Export Plug-In . SVG Version: 6.00 Build 0)  -->
<svg version="1.1" id="Layer_1" xmlns="http://www.w3.org/2000/svg" xmlns:xlink="http://www.w3.org/1999/xlink" x="0px" y="0px"
	 viewBox="0 0 1024 1024" style="enable-background:new 0 0 1024 1024;" xml:space="preserve">
<path d="M691.5,620.2c-3.5-3.5-7.7-4.9-12.6-4.9c-4.9,0-9.1,1.4-12.6,4.9c-7,6.3-7,17.5,0,24.5l51.1,51.7h-6
	c-54.6,0-107.7-34.3-144.8-93.7L554,582.5c-2.8-5.6-9.1-8.4-14.7-8.4c-2.8,0-6.3,0.7-9.1,2.8c-8.4,4.9-10.5,15.4-5.6,23.8l12.6,20.3
	c43.4,69.9,107,110.5,174.9,110.5h6l-51.7,51.7c-7,6.3-7,17.5,0,24.5c6.3,7,17.5,7,24.5,0l81.8-81.8l0,0c2.8-2.8,4.9-7,4.9-11.9
	s-1.4-9.1-4.9-12.6L691.5,620.2z M264,327.1h4.6c55.2,0,108.4,34.3,144.8,93.7l20.3,32.9c5.6,8.4,16.8,11.2,25.2,5.6l0,0
	c8.4-4.9,10.5-16.1,5.6-23.8l-20.3-32.9c-43.4-70.7-107-110.5-174.9-110.5H264c-9.8,0-17.5,7.7-17.5,17.5
	C246.5,319.4,254.2,327.1,264,327.1 M691.5,216c-3.5-3.5-7.7-4.9-12.6-4.9s-9.1,1.4-12.6,4.9l0,0c-7,7-7,18.2,0,24.5l51.7,51.7h-3.2
	c-67.8,0-131.5,39.9-174.9,110.5l-123.8,200c-36.4,59.4-89.5,93.7-144.8,93.7H264c-9.8,0-17.5,7.7-17.5,17.5s7.7,17.5,17.5,17.5h7.4
	c67.8,0,131.5-39.9,174.9-110.5l123.8-200c36.4-59.4,89.5-93.7,144.8-93.7h3.2l-51.7,51.7c-7,6.3-7,17.5,0,24.5c6.3,7,17.5,7,24.5,0
	l81.9-81.1c2.8-3.5,4.9-7.7,4.9-12.6s-1.4-9.1-4.9-12.6L691.5,216z M512,0C229.7,0,0,229.7,0,512s229.7,512,512,512
	s512-229.7,512-512S794.3,0,512,0 M512,990.2C248.3,990.2,33.8,775.7,33.8,512S248.3,33.8,512,33.8S990.2,248.3,990.2,512
	S775.7,990.2,512,990.2"/>
</svg>
