<?xml version="1.0" encoding="utf-8"?>
<!-- Generator: Adobe Illustrator 22.0.0, SVG Export Plug-In . SVG Version: 6.00 Build 0)  -->
<svg version="1.1" id="Layer_1" xmlns="http://www.w3.org/2000/svg" xmlns:xlink="http://www.w3.org/1999/xlink" x="0px" y="0px"
	 viewBox="0 0 1200 371.8" style="enable-background:new 0 0 1200 371.8;" xml:space="preserve">
<style type="text/css">
	.st0{display:none;fill:url(#SVGID_1_);}
	.st1{display:none;fill:url(#SVGID_2_);}
	.st2{fill:#FFFFFF;}
	.st3{clip-path:url(#SVGID_18_);}
	.st4{clip-path:url(#SVGID_22_);}
	.st5{clip-path:url(#SVGID_24_);}
	.st6{clip-path:url(#SVGID_28_);}
	.st7{clip-path:url(#SVGID_30_);}
	.st8{clip-path:url(#SVGID_32_);}
	.st9{clip-path:url(#SVGID_34_);}
	.st10{clip-path:url(#SVGID_36_);}
	.st11{clip-path:url(#SVGID_38_);}
	.st12{clip-path:url(#SVGID_40_);}
	.st13{clip-path:url(#SVGID_42_);}
</style>
<path id="swap" d="M556.5,175.3c-23.4-8.6-39.3-17.2-39.3-33.1c0-12.1,10.7-26.2,35.8-26.2c16.9,0,34.1,8.3,37.9,10.3
	c2.8,1.4,5.5,1.4,6.9-1.4l2.1-3.8c1.4-2.8,0.3-5.5-2.1-7.2c-7.9-4.8-23.8-12.1-44.8-12.1c-36.5,0-51,23.4-51,40.7
	c0,25.1,19.6,36.2,47.5,46.2c26.9,10,46.2,18.6,46.2,36.9c0,16.9-15.5,28.6-39.6,28.6c-22.4,0-39.3-12.1-43.4-15.5
	c-2.8-2.1-5.9-1.7-7.2,0.7l-3.1,5.5c-1.4,2.4,0,4.5,1.7,5.9c8.6,6.5,25.1,17.6,52,17.6c32,0,54.8-18.6,54.8-42.7
	C610.9,195.3,586.1,186.4,556.5,175.3z M856.6,105.4h-7.9c-1.7,0-4.5,0.7-5.2,3.8l-37.9,128.1h-0.7l-47.5-131.9
	c-1-2.4-2.8-3.4-4.8-3.4h-1.4c-2.8,0-3.8,0.7-4.8,3.4l-48.2,131.9h-0.7l-37.5-128.1c-0.7-3.1-2.8-3.8-5.2-3.8h-7.6
	c-3.4,0-3.4,2.8-2.4,6.5l47.5,152.6c1,3.1,2.8,3.8,5.2,3.8h1.4c2.4,0,4.1-1.4,4.8-3.8l47.9-135.7h0.7l47.5,135.7
	c1,2.4,3.1,3.8,5.2,3.8h1.4c2.8,0,4.1-1,4.8-3.8L858.6,112C860,108.2,860,105.4,856.6,105.4z M958.2,102c-33.4,0-53.7,11-54.8,11.7
	c-1.7,1-3.8,2.8-2.1,5.9l1.7,4.8c0.7,2.4,2.8,3.8,6.2,2.4c3.1-1,21.4-10.7,47.5-10.7c31.3,0,35.8,17.9,35.8,53.1
	c-4.1-1.4-22.7-7.2-41-7.2c-41.7,0-66.1,23.1-66.1,53.7c0,32.7,22,52.7,51.7,52.7c25.1,0,45.8-12.7,55.8-22.7l1.7,14.5
	c0.3,3.1,2.1,4.5,4.8,4.5h2.8c2.8,0,5.5-2.4,5.5-5.2v-88.2C1007.8,130.2,1006.4,102,958.2,102z M992.6,229.4
	c-7.6,9.6-29.6,24.1-53.7,24.1c-22,0-38.6-15.5-38.6-38.2c0-23.4,21-40,51.3-40c18.9,0,35.8,5.9,41,8.3V229.4z M1124.6,102
	c-29.3,0-48.9,14.8-53.7,18.6l-1.4-11c-0.3-3.1-1.7-4.1-4.5-4.1h-2.1c-2.8,0-5.5,1.7-5.5,5.2v230.8c0,2.8,2.1,5.2,5.2,5.2h4.5
	c2.4,0,5.5-2.4,5.5-5.2v-89.6c4.5,3.8,21.7,16.5,48.2,16.5c46.2,0,79.2-36.9,79.2-83.7C1200,138.1,1168.7,102,1124.6,102z
	 M1120.4,253.5c-26.9,0-45.8-17.2-47.9-19.3v-96.5c2.1-2.8,20.7-21,51.3-21c36.5,0,61,30.7,61,67.5
	C1184.8,223.2,1159,253.5,1120.4,253.5z"/>
<path d="M185.9,0C83.4,0,0,83.4,0,185.9c0,102.5,83.4,185.9,185.9,185.9c102.5,0,185.9-83.4,185.9-185.9C371.8,83.4,288.4,0,185.9,0
	z M95.8,106.3l1.9,0c24.6,0,47.7,14.5,63.5,40.1l7.4,11.9c1.8,2.8,1,6.9-2,8.6l0,0c-3,2-7.1,1-9.1-2l-7.4-11.9
	c-13.2-21.6-32.5-34-52.6-34h-1.7c-3.6,0-6.3-2.8-6.3-6.3C89.5,109.1,92.3,106.3,95.8,106.3z M280.5,263.5L280.5,263.5l-29.7,29.7
	c-2.5,2.5-6.6,2.5-8.9,0c-2.5-2.5-2.5-6.6,0-8.9l18.8-18.8l-2.2,0c-24.6,0-47.7-14.7-63.5-40.1l-4.6-7.4c-1.8-3-1-6.9,2-8.6
	c1-0.8,2.3-1,3.3-1c2,0,4.3,1,5.3,3l4.6,7.4c13.5,21.6,32.8,34,52.6,34h2.2l-18.5-18.8c-2.5-2.5-2.5-6.6,0-8.9
	c1.3-1.3,2.8-1.8,4.6-1.8s3.3,0.5,4.6,1.8l29.5,29.5c1.3,1.3,1.8,2.8,1.8,4.6C282.3,261,281.5,262.5,280.5,263.5z M280.5,117
	l-29.7,29.5c-2.5,2.5-6.6,2.5-8.9,0c-2.5-2.5-2.5-6.6,0-8.9l18.8-18.8h-1.2c-20.1,0-39.4,12.4-52.6,34L162,225.4
	c-15.7,25.7-38.9,40.1-63.5,40.1l-2.7,0c-3.6,0-6.3-2.8-6.3-6.3c0-3.6,2.8-6.3,6.3-6.3h2.7c20.1,0,39.4-12.4,52.6-34l44.9-72.6
	c15.7-25.7,38.9-40.1,63.5-40.1h1.2l-18.8-18.8c-2.5-2.3-2.5-6.3,0-8.9l0,0c1.3-1.3,2.8-1.8,4.6-1.8c1.8,0,3.3,0.5,4.6,1.8
	l29.5,29.5c1.3,1.3,1.8,2.8,1.8,4.6C282.3,114.2,281.5,115.7,280.5,117z"/>
</svg>
