<?xml version="1.0" encoding="utf-8"?>
<!-- Generator: Adobe Illustrator 21.0.0, SVG Export Plug-In . SVG Version: 6.00 Build 0)  -->
<svg version="1.1" xmlns="http://www.w3.org/2000/svg" xmlns:xlink="http://www.w3.org/1999/xlink" x="0px" y="0px" width="1200px"
	 height="1200px" viewBox="0 0 1200 1200" style="enable-background:new 0 0 1200 1200;" xml:space="preserve">
<style type="text/css">
	.st0{fill:#424F60;}
	.st1{fill:#FFFFFF;}
	.st2{fill:#A262FB;}
</style>
<g id="Backgrounds">
	<rect x="0" y="0" class="st0" width="1200" height="1200"/>
	<rect x="1300" y="0" class="st0" width="1200" height="1200"/>
</g>
<g id="_x23_6A75F9">
	<g>
		<path class="st1" d="M1900,100c-276.1,0-500,223.9-500,500s223.9,500,500,500s500-223.9,500-500S2176.1,100,1900,100z
			 M1657.7,385.9h5.1c66.2,0,128.3,39,170.8,107.9l19.9,32c4.8,7,2.7,18-5.4,22.9c-8.1,5.4-19.1,2.7-24.5-5.4l-19.9-32
			c-35.5-58.1-87.4-91.4-141.5-91.4h-4.6c-9.7,0-16.9-7.5-16.9-17C1640.7,393.2,1648.3,385.9,1657.7,385.9z M2154.4,808.7
			l-80.1,80.2c-7,6.7-17.8,6.7-23.9,0c-6.7-7-6.7-17.8,0-23.9l50.6-50.6h-5.9c-66.2,0-128.6-39.5-170.8-107.8l-12.4-19.9
			c-4.8-8.1-2.7-18.3,5.4-23.1c2.7-2.2,6.2-2.7,8.9-2.7c5.4,0,11.6,2.7,14.3,8.1l12.4,19.9c36.3,58.1,88.2,91.4,141.5,91.4h5.9
			l-49.8-50.6c-6.7-7-6.7-17.8,0-23.9c3.5-3.5,7.5-4.8,12.4-4.8s8.9,1.3,12.4,4.8l79.3,79.1c3.5,3.5,4.8,7.5,4.8,12.4
			C2159.3,802,2157.1,806,2154.4,808.7z M2154.4,414.4l-79.9,79.3c-7,6.7-17.8,6.7-23.9,0c-6.7-7-6.7-17.8,0-23.9l50.6-50.6h-3.2
			c-54.1,0-106,33.3-141.5,91.4L1835.7,706c-42.5,68.9-104.6,107.9-170.8,107.9h-7.3c-9.4,0-16.9-7.3-16.9-16.9
			c0-9.4,7.3-16.9,16.9-16.9h7.3c54.1,0,106-33.4,141.5-91.5l120.8-195.3c42.5-68.8,104.6-107.8,170.8-107.8h3.2l-50.6-50.6
			c-6.7-6.2-6.7-17.2,0-23.9c3.5-3.5,7.5-4.9,12.1-4.9c4.8,0,8.9,1.4,12.4,4.9l79.3,78.8c3.5,3.5,4.8,7.5,4.8,12.4
			C2159.3,406.9,2157.1,410.9,2154.4,414.4z"/>
	</g>
</g>
<g id="_x23_A262FB">
	<g>
		<circle class="st2" cx="600" cy="600" r="500"/>
		<path class="st1" d="M548.1,548.6c-8.1,5.4-19.1,2.7-24.5-5.4l-19.9-32c-35.5-58.1-87.4-91.4-141.5-91.4h-4.6
			c-9.7,0-16.9-7.5-16.9-16.9c0-9.7,7.5-16.9,16.9-16.9h5.1c66.2,0,128.3,39,170.8,107.9l19.9,32
			C558.3,532.8,556.2,543.8,548.1,548.6L548.1,548.6z M854.4,808.7c2.7-2.7,4.8-6.7,4.8-11.6c0-4.8-1.3-8.9-4.8-12.4l-79.3-79.1
			c-3.5-3.5-7.5-4.8-12.4-4.8c-4.8,0-8.9,1.3-12.4,4.8c-6.7,6.2-6.7,16.9,0,23.9l49.8,50.6h-5.9c-53.3,0-105.2-33.4-141.5-91.4
			l-12.4-19.9c-2.7-5.4-8.9-8.1-14.3-8.1c-2.7,0-6.2,0.5-8.9,2.7c-8.1,4.8-10.2,15.1-5.4,23.1l12.4,19.9
			c42.2,68.3,104.6,107.9,170.8,107.9h5.9l-50.6,50.6c-6.7,6.2-6.7,16.9,0,23.9c6.2,6.7,16.9,6.7,23.9,0L854.4,808.7L854.4,808.7z
			 M750.6,310.9c-6.7,6.7-6.7,17.8,0,23.9l50.6,50.6H798c-66.2,0-128.3,39-170.8,107.9L506.4,688.5c-35.5,58.1-87.4,91.4-141.5,91.4
			h-7.3c-9.7,0-16.9,7.5-16.9,16.9c0,9.7,7.5,16.9,16.9,16.9h7.3c66.2,0,128.3-39,170.8-107.9l120.8-195.3
			c35.5-58.1,87.4-91.4,141.5-91.4h3.2l-50.6,50.6c-6.7,6.2-6.7,16.9,0,23.9c6.2,6.7,16.9,6.7,23.9,0l79.9-79.3
			c2.7-3.5,4.8-7.5,4.8-12.4s-1.3-8.9-4.8-12.4l-79.3-78.8c-3.5-3.5-7.5-4.8-12.4-4.8C758.1,306,754.1,307.4,750.6,310.9
			L750.6,310.9z"/>
	</g>
</g>
</svg>
